<?xml version="1.0" encoding="utf-8"?>
<!-- Generator: Adobe Illustrator 26.0.3, SVG Export Plug-In . SVG Version: 6.00 Build 0)  -->
<svg version="1.1" id="Layer_1" xmlns="http://www.w3.org/2000/svg" xmlns:xlink="http://www.w3.org/1999/xlink" x="0px" y="0px"
	 viewBox="0 0 157.7 63" style="enable-background:new 0 0 157.7 63;" xml:space="preserve">
<style type="text/css">
	.st0{fill:#41624B;}
</style>
<g>
	<path class="st0" d="M4.5,0C2,0,0,2,0,4.5v54C0,61,2,63,4.5,63h53.9c2.5,0,4.5-2,4.5-4.5v-54c0-2.5-2-4.5-4.5-4.5H4.5z M53.6,8.6
		c-4.9,9.7-8.7,20-14.9,29c-2.8,4.1-6.1,8.3-10.9,10.1c-3.4,1.4-7.7,0.9-10.4-1.7c-1.6-1.4-1.4-3.8-0.5-5.4c2.5-3.2,6.1-5.3,9.4-7.7
		C36.4,26,45.9,18.1,53.6,8.6L53.6,8.6z M49.2,11.9C42.6,19.1,35,25.4,27,31l0,0l0,0c-3.5,2.6-7.4,4.8-10.5,8.2
		c-0.9,0.9-1.5,2.7-1.4,3.9c-1.6-2.7-2.1-6.9-0.7-9.8c1.4-3.1,4.6-4.7,7.5-6C31.8,23.6,39.5,19.5,49.2,11.9L49.2,11.9z"/>
	<path class="st0" d="M91.7,39.1h-3.1v-17h6.8c1.9,0,3.4,0.5,4.4,1.4c1,0.9,1.6,2.4,1.6,4.3c0,1.7-0.5,3-1.6,3.9
		c-1.1,0.9-2.5,1.4-4.3,1.4h-3.7V39.1z M95,24.6h-3.3v6.3H95c1.1,0,2-0.3,2.6-0.8c0.7-0.5,1-1.3,1-2.4c0-1.1-0.3-1.8-1-2.4
		C97,24.9,96.2,24.6,95,24.6z M103.4,39.1v-17h3v17H103.4z M113.2,39.4c-1.7,0-2.9-0.6-3.6-1.7c-0.7-1.2-1.1-2.7-1.1-4.6
		c0-1.9,0.4-3.4,1.1-4.6c0.7-1.2,2-1.8,3.6-1.8c1,0,1.7,0.2,2.3,0.5c0.6,0.3,1,0.7,1.3,1.1c0.3,0.4,0.5,0.7,0.5,0.9h0.1v-2.5h3.2
		v12.4h-2.7l-0.5-2h-0.1c-0.1,0.2-0.2,0.5-0.5,0.8c-0.3,0.4-0.7,0.7-1.3,1C114.9,39.3,114.2,39.4,113.2,39.4z M114.5,36.8
		c1.1,0,1.9-0.4,2.3-1.1c0.4-0.7,0.6-1.6,0.6-2.7c0-1.1-0.2-2-0.6-2.7c-0.4-0.7-1.2-1-2.3-1c-0.8,0-1.4,0.2-1.8,0.5
		c-0.4,0.3-0.7,0.8-0.9,1.4c-0.2,0.5-0.2,1.2-0.2,1.8c0,0.7,0.1,1.3,0.2,1.9c0.2,0.6,0.5,1,0.9,1.4
		C113.1,36.7,113.7,36.8,114.5,36.8z M122.6,39.1V26.8h2.6l0.5,2.6h0.1c0-0.1,0.1-0.2,0.2-0.5c0.1-0.3,0.4-0.6,0.7-0.9
		c0.3-0.3,0.7-0.6,1.3-0.9c0.5-0.3,1.2-0.4,2-0.4c1.1,0,2,0.2,2.6,0.7c0.6,0.4,1,1,1.3,1.7c0.3,0.7,0.4,1.4,0.5,2.1
		c0.1,0.7,0.1,1.4,0.1,2v6h-3v-6c0-0.7-0.1-1.3-0.2-1.8c-0.1-0.6-0.4-1-0.8-1.3c-0.4-0.3-1-0.5-1.7-0.5c-0.8,0-1.4,0.2-1.8,0.5
		s-0.7,0.8-0.9,1.4c-0.2,0.6-0.2,1.2-0.2,1.8v5.9H122.6z M140.8,39.1c-1,0-1.7-0.2-2.2-0.7c-0.5-0.5-0.7-1.3-0.7-2.4v-7.1h-1.9v-2.2
		c0.6,0,1-0.1,1.4-0.2c0.3-0.1,0.6-0.4,0.7-0.8c0.1-0.4,0.2-1.2,0.2-2.1h2.5v3.2h2.8v2.2h-2.8v7.8h2.9v2.4H140.8z M144.7,44.9v-2.4
		h1.9c0.3,0,0.6,0,0.8-0.1c0.2-0.1,0.4-0.2,0.7-0.5c0.2-0.2,0.5-0.6,0.8-1.2l0.8-1.8l-4.8-12.2h3.2l3.2,9l3.4-9h3.2L151.6,41
		c-0.5,1.1-0.9,2-1.3,2.5c-0.4,0.6-0.9,0.9-1.4,1.1c-0.5,0.2-1.1,0.3-1.9,0.3H144.7z"/>
</g>
</svg>
